<svg xmlns="http://www.w3.org/2000/svg" xmlns:xlink="http://www.w3.org/1999/xlink" width="666" zoomAndPan="magnify" viewBox="0 0 499.5 499.499998" height="666" preserveAspectRatio="xMidYMid meet" version="1.0"><defs><g/><clipPath id="59fe74e592"><path d="M 74.414062 46.152344 L 249.5 46.152344 L 249.5 49.898438 L 74.414062 49.898438 Z M 74.414062 46.152344 " clip-rule="nonzero"/></clipPath><clipPath id="caa98020b4"><path d="M 0.414062 0.152344 L 175.5 0.152344 L 175.5 3.898438 L 0.414062 3.898438 Z M 0.414062 0.152344 " clip-rule="nonzero"/></clipPath><clipPath id="7c9c5b7301"><rect x="0" width="176" y="0" height="4"/></clipPath><clipPath id="457eb97afd"><path d="M 46.152344 74.871094 L 49.898438 74.871094 L 49.898438 249.496094 L 46.152344 249.496094 Z M 46.152344 74.871094 " clip-rule="nonzero"/></clipPath><clipPath id="4e7e0b791d"><path d="M 0.152344 0.871094 L 3.898438 0.871094 L 3.898438 175.496094 L 0.152344 175.496094 Z M 0.152344 0.871094 " clip-rule="nonzero"/></clipPath><clipPath id="a77e6714c5"><rect x="0" width="4" y="0" height="176"/></clipPath><clipPath id="19a8d0d8e3"><path d="M 249.5 449.101562 L 419.941406 449.101562 L 419.941406 452.886719 L 249.5 452.886719 Z M 249.5 449.101562 " clip-rule="nonzero"/></clipPath><clipPath id="bd55569ec7"><path d="M 0.5 0.101562 L 170.941406 0.101562 L 170.941406 3.886719 L 0.5 3.886719 Z M 0.5 0.101562 " clip-rule="nonzero"/></clipPath><clipPath id="4c40b7c1c8"><rect x="0" width="171" y="0" height="4"/></clipPath><clipPath id="8b9b92b112"><path d="M 449.101562 249.496094 L 452.863281 249.496094 L 452.863281 420.398438 L 449.101562 420.398438 Z M 449.101562 249.496094 " clip-rule="nonzero"/></clipPath><clipPath id="791bd7620a"><path d="M 0.101562 0.496094 L 3.863281 0.496094 L 3.863281 171.398438 L 0.101562 171.398438 Z M 0.101562 0.496094 " clip-rule="nonzero"/></clipPath><clipPath id="6902a29aa3"><rect x="0" width="4" y="0" height="172"/></clipPath></defs><path fill="#ffffff" d="M 0 0 L 499 0 L 499 499 L 0 499 Z M 0 0 " fill-opacity="1" fill-rule="nonzero"/><path fill="#0b1c2d" d="M 0 0 L 499 0 L 499 499 L 0 499 Z M 0 0 " fill-opacity="1" fill-rule="nonzero"/><g clip-path="url(#59fe74e592)"><g transform="matrix(1, 0, 0, 1, 74, 46)"><g clip-path="url(#7c9c5b7301)"><g clip-path="url(#caa98020b4)"><path fill="#e5e7eb" d="M 0.414062 0.152344 L 175.503906 0.152344 L 175.503906 3.898438 L 0.414062 3.898438 Z M 0.414062 0.152344 " fill-opacity="1" fill-rule="nonzero"/></g></g></g></g><path fill="#00eafa" d="M 96.5 278.867188 L 402.5 278.867188 L 402.5 293.851562 L 96.5 293.851562 Z M 96.5 278.867188 " fill-opacity="1" fill-rule="nonzero"/><g fill="#00eafa" fill-opacity="1"><g transform="translate(96.501054, 271.373042)"><g><path d="M -0.90625 0 L 35.65625 -105.796875 L 62.640625 -105.796875 L 100.09375 0 L 73.28125 0 L 66.375 -22.46875 L 36.71875 -22.46875 L 42.40625 -41.953125 L 60.53125 -41.953125 L 52.890625 -67.125 C 51.992188 -70.019531 50.796875 -75.164062 49.296875 -82.5625 C 48.597656 -79.269531 47.453125 -74.328125 45.859375 -67.734375 L 25.921875 0 Z M -0.90625 0 "/></g></g></g><g fill="#00eafa" fill-opacity="1"><g transform="translate(196.451018, 271.373042)"><g><path d="M 8.390625 0 L 8.390625 -105.796875 L 32.359375 -105.796875 L 32.359375 0 Z M 36.109375 0 L 36.109375 -19.625 L 44.203125 -19.625 C 54.890625 -19.625 61.679688 -20.472656 64.578125 -22.171875 C 68.671875 -24.566406 70.71875 -28.316406 70.71875 -33.421875 C 70.71875 -35.710938 70.070312 -37.957031 68.78125 -40.15625 C 66.382812 -44.15625 61.6875 -46.15625 54.6875 -46.15625 L 36.109375 -46.15625 L 36.109375 -65.1875 L 51.25 -65.1875 C 55.738281 -65.1875 58.882812 -65.382812 60.6875 -65.78125 C 62.988281 -66.28125 64.835938 -67.328125 66.234375 -68.921875 C 67.929688 -70.921875 68.78125 -73.117188 68.78125 -75.515625 C 68.78125 -77.816406 68.128906 -79.867188 66.828125 -81.671875 C 64.734375 -84.660156 60.085938 -86.15625 52.890625 -86.15625 L 36.109375 -86.15625 L 36.109375 -105.796875 L 57.09375 -105.796875 C 58.488281 -105.796875 60.035156 -105.742188 61.734375 -105.640625 C 66.023438 -105.335938 69.722656 -104.738281 72.828125 -103.84375 C 79.015625 -102.039062 83.804688 -98.890625 87.203125 -94.390625 C 90.597656 -89.898438 92.296875 -84.8125 92.296875 -79.125 C 92.296875 -68.53125 87.351562 -61.1875 77.46875 -57.09375 C 79.96875 -55.894531 82.113281 -54.644531 83.90625 -53.34375 C 91.40625 -47.851562 95.15625 -40.410156 95.15625 -31.015625 C 95.15625 -24.328125 93.28125 -18.359375 89.53125 -13.109375 C 85.78125 -7.867188 80.710938 -4.195312 74.328125 -2.09375 C 69.929688 -0.695312 64.832031 0 59.03125 0 Z M 36.109375 0 "/></g></g></g><g fill="#00eafa" fill-opacity="1"><g transform="translate(296.400981, 271.373042)"><g><path d="M 55.734375 -107.734375 L 55.59375 -88.109375 C 38.707031 -86.410156 30.265625 -74.222656 30.265625 -51.546875 C 30.265625 -47.648438 30.566406 -44.203125 31.171875 -41.203125 C 33.367188 -30.316406 38.710938 -23.125 47.203125 -19.625 C 49.703125 -18.53125 52.546875 -17.929688 55.734375 -17.828125 L 55.59375 2.25 C 50.300781 1.945312 46.207031 1.445312 43.3125 0.75 C 36.914062 -0.644531 31.117188 -3.242188 25.921875 -7.046875 C 11.734375 -17.429688 4.640625 -32.765625 4.640625 -53.046875 C 4.640625 -66.035156 7.835938 -77.222656 14.234375 -86.609375 C 23.523438 -100.191406 37.359375 -107.234375 55.734375 -107.734375 Z M 59.78125 -88.109375 L 59.78125 -107.734375 C 71.875 -107.429688 81.816406 -104.035156 89.609375 -97.546875 C 94.003906 -93.953125 97.300781 -89.957031 99.5 -85.5625 C 101.195312 -82.257812 102.445312 -78.3125 103.25 -73.71875 L 79.265625 -71.921875 C 78.867188 -73.523438 78.46875 -74.828125 78.0625 -75.828125 C 77.363281 -77.617188 76.316406 -79.316406 74.921875 -80.921875 C 71.328125 -85.109375 66.28125 -87.503906 59.78125 -88.109375 Z M 59.78125 2.25 L 59.78125 -17.828125 C 62.382812 -18.128906 64.632812 -18.628906 66.53125 -19.328125 C 72.519531 -21.523438 76.613281 -25.570312 78.8125 -31.46875 C 79.414062 -32.96875 79.816406 -34.816406 80.015625 -37.015625 L 104.890625 -35.515625 C 104.191406 -31.816406 103.492188 -28.867188 102.796875 -26.671875 C 101.296875 -22.171875 99.144531 -18.078125 96.34375 -14.390625 C 88.757812 -4.398438 76.570312 1.144531 59.78125 2.25 Z M 59.78125 2.25 "/></g></g></g><g fill="#e5e7eb" fill-opacity="1"><g transform="translate(109.484153, 348.296028)"><g><path d="M 21.59375 -32.859375 C 18.46875 -32.859375 16.046875 -31.679688 14.328125 -29.328125 C 12.609375 -26.984375 11.75 -23.707031 11.75 -19.5 C 11.75 -10.757812 15.03125 -6.390625 21.59375 -6.390625 C 24.34375 -6.390625 27.675781 -7.078125 31.59375 -8.453125 L 31.59375 -1.46875 C 28.375 -0.132812 24.78125 0.53125 20.8125 0.53125 C 15.113281 0.53125 10.75 -1.195312 7.71875 -4.65625 C 4.695312 -8.113281 3.1875 -13.082031 3.1875 -19.5625 C 3.1875 -23.632812 3.925781 -27.203125 5.40625 -30.265625 C 6.894531 -33.335938 9.03125 -35.691406 11.8125 -37.328125 C 14.59375 -38.960938 17.851562 -39.78125 21.59375 -39.78125 C 25.40625 -39.78125 29.234375 -38.859375 33.078125 -37.015625 L 30.390625 -30.265625 C 28.921875 -30.960938 27.441406 -31.566406 25.953125 -32.078125 C 24.472656 -32.597656 23.019531 -32.859375 21.59375 -32.859375 Z M 21.59375 -32.859375 "/></g></g></g><g fill="#e5e7eb" fill-opacity="1"><g transform="translate(143.956466, 348.296028)"><g><path d="M 40.53125 -19.65625 C 40.53125 -13.164062 38.921875 -8.175781 35.703125 -4.6875 C 32.484375 -1.207031 27.867188 0.53125 21.859375 0.53125 C 15.847656 0.53125 11.234375 -1.207031 8.015625 -4.6875 C 4.796875 -8.175781 3.1875 -13.1875 3.1875 -19.71875 C 3.1875 -26.238281 4.800781 -31.21875 8.03125 -34.65625 C 11.257812 -38.101562 15.890625 -39.828125 21.921875 -39.828125 C 27.941406 -39.828125 32.546875 -38.09375 35.734375 -34.625 C 38.929688 -31.15625 40.53125 -26.164062 40.53125 -19.65625 Z M 11.90625 -19.65625 C 11.90625 -15.28125 12.738281 -11.984375 14.40625 -9.765625 C 16.070312 -7.546875 18.554688 -6.4375 21.859375 -6.4375 C 28.492188 -6.4375 31.8125 -10.84375 31.8125 -19.65625 C 31.8125 -28.5 28.515625 -32.921875 21.921875 -32.921875 C 18.609375 -32.921875 16.109375 -31.804688 14.421875 -29.578125 C 12.742188 -27.347656 11.90625 -24.039062 11.90625 -19.65625 Z M 11.90625 -19.65625 "/></g></g></g><g fill="#e5e7eb" fill-opacity="1"><g transform="translate(187.683997, 348.296028)"><g><path d="M 21.546875 0 L 12.09375 -30.765625 L 11.859375 -30.765625 C 12.191406 -24.503906 12.359375 -20.328125 12.359375 -18.234375 L 12.359375 0 L 4.9375 0 L 4.9375 -39.21875 L 16.25 -39.21875 L 25.53125 -9.234375 L 25.703125 -9.234375 L 35.546875 -39.21875 L 46.859375 -39.21875 L 46.859375 0 L 39.109375 0 L 39.109375 -18.5625 C 39.109375 -19.4375 39.117188 -20.445312 39.140625 -21.59375 C 39.171875 -22.738281 39.296875 -25.78125 39.515625 -30.71875 L 39.265625 -30.71875 L 29.15625 0 Z M 21.546875 0 "/></g></g></g><g fill="#e5e7eb" fill-opacity="1"><g transform="translate(239.486373, 348.296028)"><g><path d="M 13.25 -20.765625 L 15.984375 -20.765625 C 18.546875 -20.765625 20.457031 -21.269531 21.71875 -22.28125 C 22.988281 -23.289062 23.625 -24.757812 23.625 -26.6875 C 23.625 -28.632812 23.09375 -30.070312 22.03125 -31 C 20.96875 -31.9375 19.300781 -32.40625 17.03125 -32.40625 L 13.25 -32.40625 Z M 32.03125 -26.984375 C 32.03125 -22.765625 30.707031 -19.535156 28.0625 -17.296875 C 25.425781 -15.066406 21.675781 -13.953125 16.8125 -13.953125 L 13.25 -13.953125 L 13.25 0 L 4.9375 0 L 4.9375 -39.21875 L 17.46875 -39.21875 C 22.21875 -39.21875 25.832031 -38.191406 28.3125 -36.140625 C 30.789062 -34.097656 32.03125 -31.046875 32.03125 -26.984375 Z M 32.03125 -26.984375 "/></g></g></g><g fill="#e5e7eb" fill-opacity="1"><g transform="translate(272.644148, 348.296028)"><g><path d="M 28.9375 0 L 26.09375 -9.328125 L 11.796875 -9.328125 L 8.953125 0 L 0 0 L 13.84375 -39.375 L 24.015625 -39.375 L 37.90625 0 Z M 24.109375 -16.3125 C 21.484375 -24.769531 20.003906 -29.550781 19.671875 -30.65625 C 19.347656 -31.769531 19.113281 -32.648438 18.96875 -33.296875 C 18.375 -31.003906 16.679688 -25.34375 13.890625 -16.3125 Z M 24.109375 -16.3125 "/></g></g></g><g fill="#e5e7eb" fill-opacity="1"><g transform="translate(310.550302, 348.296028)"><g><path d="M 39.734375 0 L 29.15625 0 L 12.09375 -29.671875 L 11.859375 -29.671875 C 12.191406 -24.429688 12.359375 -20.691406 12.359375 -18.453125 L 12.359375 0 L 4.9375 0 L 4.9375 -39.21875 L 15.421875 -39.21875 L 32.453125 -9.84375 L 32.640625 -9.84375 C 32.378906 -14.9375 32.25 -18.539062 32.25 -20.65625 L 32.25 -39.21875 L 39.734375 -39.21875 Z M 39.734375 0 "/></g></g></g><g fill="#e5e7eb" fill-opacity="1"><g transform="translate(355.216763, 348.296028)"><g><path d="M 17.140625 -23.0625 L 25.328125 -39.21875 L 34.28125 -39.21875 L 21.265625 -15.265625 L 21.265625 0 L 13.015625 0 L 13.015625 -15 L 0 -39.21875 L 9.015625 -39.21875 Z M 17.140625 -23.0625 "/></g></g></g><g clip-path="url(#457eb97afd)"><g transform="matrix(1, 0, 0, 1, 46, 74)"><g clip-path="url(#a77e6714c5)"><g clip-path="url(#4e7e0b791d)"><path fill="#e5e7eb" d="M 0.152344 175.496094 L 0.152344 0.871094 L 3.898438 0.871094 L 3.898438 175.496094 Z M 0.152344 175.496094 " fill-opacity="1" fill-rule="nonzero"/></g></g></g></g><g clip-path="url(#19a8d0d8e3)"><g transform="matrix(1, 0, 0, 1, 249, 449)"><g clip-path="url(#4c40b7c1c8)"><g clip-path="url(#bd55569ec7)"><path fill="#e5e7eb" d="M 0.5 0.101562 L 170.945312 0.101562 L 170.945312 3.886719 L 0.5 3.886719 Z M 0.5 0.101562 " fill-opacity="1" fill-rule="nonzero"/></g></g></g></g><g clip-path="url(#8b9b92b112)"><g transform="matrix(1, 0, 0, 1, 449, 249)"><g clip-path="url(#6902a29aa3)"><g clip-path="url(#791bd7620a)"><path fill="#e5e7eb" d="M 0.101562 171.398438 L 0.101562 0.488281 L 3.863281 0.488281 L 3.863281 171.398438 Z M 0.101562 171.398438 " fill-opacity="1" fill-rule="nonzero"/></g></g></g></g></svg>